<svg xmlns="http://www.w3.org/2000/svg"  viewBox="0 0 64 64" width="64px" height="64px" baseProfile="basic"><path fill="#37d0ee" d="M44,54H26c-2.209,0-4-1.791-4-4s1.791-4,4-4h18c1.103,0,2-0.897,2-2V20c0-2.209,1.791-4,4-4 s4,1.791,4,4v24C54,49.514,49.514,54,44,54z"/><path fill="#37d0ee" d="M14,48c-2.209,0-4-1.791-4-4V20c0-5.514,4.486-10,10-10h17c2.209,0,4,1.791,4,4s-1.791,4-4,4H20 c-1.103,0-2,0.897-2,2v24C18,46.209,16.209,48,14,48z"/><ellipse cx="32" cy="61" opacity=".3" rx="20" ry="3"/><path fill="#fff" d="M14.01,12H14c-2.24,1.69-3.75,4.29-3.97,7.25C10.01,19.49,10,19.75,10,20v12 c2.761,0,5-2.239,5-5v-7c0-0.108,0.003-0.221,0.017-0.38c0.102-1.375,0.778-2.65,1.862-3.525c0.048-0.033,0.095-0.068,0.142-0.103 C17.881,15.343,18.911,15,20,15h5c2.761,0,5-2.239,5-5H20C17.75,10,15.68,10.74,14.01,12z" opacity=".3"/><path d="M54,44V29c-2.761,0-5,2.238-5,5v10c0,2.757-2.243,5-5,5h-5c-2.761,0-5,2.238-5,5h10 C49.523,54,54,49.523,54,44z" opacity=".15"/><path fill="none" stroke="#fff" stroke-linecap="round" stroke-linejoin="round" stroke-miterlimit="10" stroke-width="3" d="M13.5,23.5V20c0-0.153,0.005-0.312,0.018-0.459c0.135-1.809,1.003-3.46,2.396-4.594l0.204-0.152"/><path fill="#37d0ee" d="M7.561,41h12.878c1.245,0,1.987,1.412,1.297,2.466l-6.445,9.828c-0.617,0.941-1.977,0.94-2.593-0.001	l-6.433-9.828C5.574,42.412,6.317,41,7.561,41z"/><path fill="#37d0ee" d="M43.561,23h12.878c1.245,0,1.987-1.412,1.297-2.466l-6.445-9.828	c-0.617-0.941-1.977-0.94-2.593,0.001l-6.433,9.828C41.574,21.588,42.317,23,43.561,23z"/></svg>